<svg width="329" height="124" viewBox="0 0 329 124" fill="none" xmlns="http://www.w3.org/2000/svg">
<g clip-path="url(#clip0_1210_85)">
<path d="M11.3188 97.9165C11.4488 98.1965 11.5788 98.4765 11.7188 98.7565C11.9488 98.9665 12.1688 99.1765 12.3988 99.3765C12.0288 98.8965 11.6688 98.4065 11.3188 97.9165Z" fill="#C4122F"/>
<path d="M11.5289 25.7827C11.4289 25.8727 11.3389 25.9727 11.2389 26.0627C11.1889 26.1727 11.1389 26.2927 11.0889 26.4027C11.2389 26.1927 11.3789 25.9927 11.5289 25.7827Z" fill="#C4122F"/>
<path d="M80.8373 3.39842C80.8373 3.39842 80.8173 3.38842 80.7973 3.37842C80.7873 3.37842 80.7673 3.37842 80.7573 3.37842C80.7873 3.37842 80.8073 3.39842 80.8373 3.40842V3.39842Z" fill="#C4122F"/>
<path d="M92.9202 110.529C87.9332 116.7 85.7045 117.76 81.0073 120.511C92.6504 116.47 104.154 107.779 111.469 98.0767C106.892 102.217 100.676 106.058 94.7292 107.749C94.4893 108.109 93.2101 110.189 92.9302 110.529H92.9202Z" fill="#C4122F"/>
<path d="M61.6989 118.511C61.3391 118.651 60.9893 118.781 60.6195 118.911C54.9229 120.941 48.2968 121.602 42.6802 120.971C47.5773 122.532 53.5437 123.422 58.8905 123.652C66.2462 123.972 74.3613 122.712 81.0074 120.511C79.4883 120.691 76.9398 121.011 75.3707 121.011C70.5736 121.011 65.9663 120.121 61.6989 118.501V118.511Z" fill="#C4122F"/>
<path d="M28.0386 107.959C27.8188 107.899 27.6089 107.839 27.389 107.769C21.6524 106.028 16.5955 103.118 12.3979 99.377C19.5937 108.829 30.0475 116.26 41.5306 120.311C40.5412 119.721 39.0021 118.991 38.0527 118.311C33.9951 115.4 30.6471 111.869 28.0386 107.949V107.959Z" fill="#C4122F"/>
<path d="M7.67076 79.7933C7.55083 79.6432 7.4309 79.4832 7.31097 79.3332C3.46326 74.3122 0.984735 67.5909 -0.18457 61.7798C-0.0146713 74.7923 4.21282 87.9849 11.3286 97.9268C10.7589 96.6766 10.2392 95.3863 9.7895 94.056C8.18046 89.3251 7.51086 84.5042 7.67076 79.7933Z" fill="#C4122F"/>
<path d="M7.59103 44.4866C7.59103 44.3966 7.59104 44.3065 7.58104 44.2065C7.37117 37.8653 8.6504 31.8141 11.089 26.3931C4.46289 35.7649 0.375325 47.0871 -0.144366 59.4195C-0.164355 59.9796 -0.184342 61.2198 -0.194336 61.7799C0.0455215 60.6597 0.325356 58.8694 0.665154 57.7592C2.17426 52.7882 4.55284 48.3273 7.59103 44.4866Z" fill="#C4122F"/>
<path d="M28.009 16.511C28.039 16.461 28.079 16.401 28.109 16.351C31.7268 10.9199 37.2035 6.10898 42.5204 3.1084C30.6874 6.64909 18.9844 15.4908 11.5288 25.7728C12.5182 24.8326 13.5776 23.9324 14.6869 23.0823C18.7845 19.9317 23.3318 17.8513 28.009 16.501V16.511Z" fill="#C4122F"/>
<path d="M61.809 5.49879C68.0853 3.24835 74.5615 2.51821 80.7578 3.36838C75.4709 1.62804 69.8643 0.587839 64.0377 0.33779C56.812 0.0377317 49.0566 1.09794 42.5205 3.11833C43.5099 3.00831 45.2789 2.83827 46.2983 2.79827C51.755 2.61823 57.0019 3.67844 61.809 5.49879Z" fill="#C4122F"/>
<path d="M94.5892 15.9709C100.716 17.6612 106.802 21.722 111.249 25.7028C103.814 15.9109 92.8203 7.35921 80.8374 3.39844C81.7868 3.92854 82.7263 4.49865 83.6457 5.10877C88.0931 8.07935 91.7609 11.7901 94.5892 15.9709Z" fill="#C4122F"/>
<path d="M115.227 44.6666C119.065 49.5775 121.883 55.9788 123.122 62.1299C123.022 48.9874 118.425 35.7248 111.239 25.6929C111.679 26.6331 112.449 27.9733 112.818 28.9535C114.767 34.1245 115.427 39.4555 115.227 44.6566V44.6666Z" fill="#C4122F"/>
<path d="M115.177 79.2832C115.177 79.2832 115.277 79.8033 115.287 79.8433C115.317 79.9934 115.327 80.1434 115.337 80.3034C115.377 80.7035 115.407 81.0936 115.417 81.5037C115.417 82.0938 115.407 82.6839 115.357 83.264C115.317 83.8141 115.287 84.3942 115.187 84.9443C114.957 86.8547 114.588 88.7451 114.098 90.6054C113.618 92.4258 113.029 94.2161 112.349 95.9665C112.069 96.6766 111.769 97.3867 111.459 98.0869C118.036 88.7351 122.563 76.8528 123.073 64.5904C123.093 64.0303 123.113 62.7 123.123 62.1499C122.973 62.84 122.803 64.3003 122.623 64.9905C121.174 70.4215 118.445 75.1524 115.177 79.3032V79.2832Z" fill="#C4122F"/>
<path d="M76.66 108.649C72.7823 112.719 67.1957 116.32 61.6689 118.511C73.2621 118.311 85.7946 114.02 94.7193 107.749C89.2625 109.159 82.5066 109.709 76.67 108.649H76.66Z" fill="#C4122F"/>
<path d="M46.4779 108.639C40.8912 109.699 33.8854 109.449 28.0488 107.958C36.5738 113.94 47.947 117.92 59.1204 118.391C59.71 118.411 61.0892 118.501 61.6788 118.511C56.1821 116.38 50.4955 112.819 46.4779 108.639Z" fill="#C4122F"/>
<path d="M7.6709 79.793C11.3387 90.475 19.1841 101.237 28.0388 107.958C24.9806 103.067 22.602 96.4562 21.8525 90.8251C16.7455 88.3646 11.4786 84.4439 7.6709 79.793Z" fill="#C4122F"/>
<path d="M7.58122 44.5464C6.15207 49.1373 5.33256 54.6083 5.12268 59.6493C4.84285 66.4306 5.73232 73.682 7.68116 79.8032C7.99098 73.8121 9.66998 67.3208 12.4683 62.1298C9.68997 57.0588 7.93101 50.6876 7.59121 44.5464H7.58122Z" fill="#C4122F"/>
<path d="M21.7826 33.434C22.5222 27.7429 24.7109 21.6517 28.0089 16.5107C18.9843 23.2821 11.2689 33.564 7.58105 44.5362C11.3188 39.9653 16.5557 35.9445 21.7926 33.424L21.7826 33.434Z" fill="#C4122F"/>
<path d="M12.4582 62.1195C12.5182 62.2295 12.5782 62.3395 12.6382 62.4495C12.6382 62.2195 12.6382 61.9995 12.6382 61.7695C12.5782 61.8795 12.5182 61.9995 12.4482 62.1195H12.4582Z" fill="#C4122F"/>
<path d="M61.7787 5.49879C61.329 5.47879 60.8693 5.49879 60.4195 5.50879C59.9698 5.5188 59.5001 5.5488 59.0403 5.56881C58.1209 5.61882 57.2114 5.68883 56.292 5.77885C55.3825 5.86886 54.4731 5.97889 53.5736 6.11891C52.6741 6.25894 51.7747 6.40897 50.8852 6.579C49.9957 6.74903 49.1063 6.94907 48.2268 7.16912C47.3473 7.38916 46.4778 7.6192 45.6083 7.87925C44.7388 8.1393 43.8893 8.40936 43.0399 8.69941C42.1904 8.98947 41.3509 9.29953 40.5214 9.6396C39.6918 9.97966 38.8723 10.3197 38.0628 10.6898C37.2533 11.0599 36.4538 11.4399 35.6642 11.84C34.8747 12.2401 34.1052 12.6602 33.3356 13.1003C32.5661 13.5404 31.8265 13.9904 31.087 14.4605C30.3474 14.9306 29.6278 15.4107 28.9183 15.9108C28.7683 16.0208 28.1587 16.4209 28.0088 16.5309C33.8653 14.9206 40.4214 14.3905 46.2979 15.4707C46.3279 15.4707 46.4878 15.2707 46.5078 15.2507C46.5778 15.1707 46.6577 15.1007 46.7277 15.0206C46.8776 14.8706 47.0275 14.7106 47.1774 14.5606C47.4872 14.2605 47.797 13.9604 48.1068 13.6704C48.7365 13.0803 49.3961 12.5202 50.0657 11.97C50.7353 11.4199 51.4349 10.8998 52.1444 10.3897C52.864 9.87964 53.5936 9.39955 54.3431 8.93946C55.1027 8.47937 55.8722 8.03928 56.6518 7.6292C57.5512 7.15911 58.4707 6.71903 59.3901 6.31895C59.7599 6.15892 60.1497 5.97889 60.5295 5.83886C60.5295 5.83886 60.8493 5.67883 61.7487 5.51879L61.7787 5.49879Z" fill="#C4122F"/>
<path d="M76.4701 15.3707C82.0268 14.3405 88.7628 14.4805 94.5894 15.9708C86.0544 9.96965 75.021 6.0789 63.8277 5.60881C63.328 5.5888 62.3186 5.50879 61.8188 5.50879C65.2768 6.50898 72.4925 11.2099 76.4701 15.3707Z" fill="#C4122F"/>
<path d="M46.2983 15.4507C46.2983 15.4507 46.2483 15.5107 46.2183 15.5307C46.2783 15.5107 46.3483 15.4907 46.4083 15.4707C46.3683 15.4707 46.3383 15.4607 46.2983 15.4507Z" fill="#C4122F"/>
<path d="M115.227 44.6663C111.539 33.5741 103.824 22.832 94.5791 15.9707C97.8372 21.0017 100.346 27.3429 101.125 33.2041C106.622 35.8246 111.549 40.1054 115.227 44.6663Z" fill="#C4122F"/>
<path d="M101.155 90.8254C100.436 96.5065 97.9673 102.648 94.7192 107.749C103.744 100.987 111.489 90.2653 115.187 79.2832C111.429 83.8741 106.442 88.295 101.155 90.8254Z" fill="#C4122F"/>
<path d="M115.177 79.283C116.576 74.7421 117.606 69.321 117.816 64.3501C118.095 57.7088 117.096 50.6674 115.227 44.6562C114.907 50.5474 113.188 56.9086 110.44 62.0396C113.128 67.0406 114.827 73.2918 115.177 79.273V79.283Z" fill="#C4122F"/>
<path d="M101.156 90.8256C101.156 90.8256 101.166 90.7456 101.176 90.7056C101.136 90.7656 101.096 90.8156 101.056 90.8756C101.086 90.8556 101.126 90.8456 101.156 90.8256Z" fill="#C4122F"/>
<path d="M101.136 33.2941C101.136 33.2941 101.136 33.2341 101.126 33.2041C101.096 33.1941 101.066 33.1741 101.036 33.1641C101.066 33.2041 101.106 33.2541 101.136 33.2941Z" fill="#C4122F"/>
<path d="M61.3689 102.468C56.9915 105.418 51.6847 107.589 46.4678 108.629C50.4654 109.889 55.1026 110.729 59.5 110.909C65.2966 111.149 71.4229 110.269 76.6598 108.639C75.7104 108.599 74.3612 108.359 73.4817 108.129C69.0543 106.949 64.9568 104.888 61.3689 102.468Z" fill="#C4122F"/>
<path d="M21.8525 90.8252C27.759 98.7067 36.8736 105.458 46.4679 108.639C42.8401 104.778 39.7219 99.977 37.843 94.916C32.5562 94.736 26.6997 93.0456 21.8525 90.8252Z" fill="#C4122F"/>
<path d="M22.9318 74.462C18.7643 71.1914 15.2564 67.1206 12.6479 62.4497C12.7279 72.7417 16.2858 82.9337 21.8625 90.8252C21.2728 85.5842 21.4227 79.623 22.9318 74.462Z" fill="#C4122F"/>
<path d="M22.9218 49.6475C21.4427 44.5265 21.1629 38.7754 21.7925 33.4243C16.5356 40.8558 13.0977 50.1976 12.6879 59.9695C12.6579 60.5696 12.6479 61.1697 12.6479 61.7698C15.2064 57.1289 18.6744 52.9881 22.9218 49.6475Z" fill="#C4122F"/>
<path d="M22.9321 74.4623C22.9321 74.4623 22.9821 74.5023 23.0021 74.5123C22.9921 74.4723 22.9721 74.4223 22.9621 74.3823C22.9621 74.4123 22.9421 74.4323 22.9421 74.4623H22.9321Z" fill="#C4122F"/>
<path d="M37.7332 29.2234C39.6021 24.1624 42.4804 19.4915 46.2182 15.5308C36.514 18.7314 27.7492 25.3227 21.7827 33.4242C26.5899 31.1938 32.2165 29.4735 37.6333 29.2934C37.6633 29.2734 37.7032 29.2434 37.7332 29.2234Z" fill="#C4122F"/>
<path d="M22.9219 49.6472C22.9219 49.6472 22.9219 49.6772 22.9319 49.6872C22.9319 49.6672 22.9419 49.6372 22.9519 49.6172C22.9419 49.6172 22.9319 49.6372 22.9219 49.6472Z" fill="#C4122F"/>
<path d="M76.4703 15.3706C72.5027 14.1404 67.9354 13.3102 63.588 13.1302C57.5916 12.8801 51.805 13.7203 46.4082 15.4806C51.6751 16.4608 56.7521 18.4812 61.2994 21.5218C65.7367 18.4912 71.1435 16.4408 76.4603 15.3806L76.4703 15.3706Z" fill="#C4122F"/>
<path d="M94.1694 30.6436C96.568 31.2837 98.8667 32.1339 101.035 33.1641C95.1089 25.0525 86.2441 18.6112 76.46 15.3706C80.1078 19.2914 83.4858 24.1523 85.3347 29.3033C88.2629 29.4133 91.2212 29.8534 94.1594 30.6436H94.1694Z" fill="#C4122F"/>
<path d="M61.3091 21.5117C61.3091 21.5117 61.2891 21.5217 61.2891 21.5317C61.3091 21.5317 61.3191 21.5317 61.3391 21.5317C61.3391 21.5317 61.3191 21.5217 61.3091 21.5117Z" fill="#C4122F"/>
<path d="M76.6602 108.649C86.3144 105.398 95.1192 98.9871 101.046 90.8755C96.2185 93.1659 90.9117 94.5062 85.4449 94.7062C83.626 99.7672 80.338 104.668 76.6602 108.649Z" fill="#C4122F"/>
<path d="M99.8662 74.752C101.325 79.913 101.835 85.3541 101.175 90.7051C106.622 83.1837 109.99 74.0319 110.41 64.0599C110.43 63.5098 110.45 62.5797 110.45 62.0396C107.861 66.7605 104.224 71.3514 99.8662 74.742V74.752Z" fill="#C4122F"/>
<path d="M85.4449 94.7059C85.4649 94.6559 85.4849 94.5959 85.5049 94.5459C85.4249 94.6059 85.3549 94.6559 85.2749 94.7159C85.3349 94.7159 85.3849 94.7159 85.4449 94.7159V94.7059Z" fill="#C4122F"/>
<path d="M99.916 49.3971C104.183 52.7177 107.811 57.2886 110.45 62.0495C110.38 51.5075 106.942 41.2955 101.145 33.2939C101.835 38.615 101.415 44.106 99.916 49.3971Z" fill="#C4122F"/>
<path d="M85.3547 29.3332C85.3547 29.3332 85.3547 29.3132 85.3447 29.3032C85.3347 29.3032 85.3247 29.3032 85.3047 29.3032C85.3247 29.3132 85.3347 29.3232 85.3547 29.3332Z" fill="#C4122F"/>
<path d="M51.5149 92.7358C47.1375 94.1561 42.3603 95.0363 37.853 94.9163C44.0094 99.3071 51.6548 102.098 59.78 102.438C60.2397 102.458 60.9193 102.468 61.379 102.468C57.6013 99.8772 54.1633 96.3565 51.5249 92.7358H51.5149Z" fill="#C4122F"/>
<path d="M22.9917 74.5122C25.6501 82.6938 30.9969 89.9252 37.8429 94.9162C36.2938 90.6453 35.2844 85.8644 35.2844 81.0535C30.7971 79.6032 26.6395 77.3728 22.9917 74.5222V74.5122Z" fill="#C4122F"/>
<path d="M29.0083 62.0999C26.2499 58.3092 24.2111 54.1084 22.9219 49.6875C21.8525 53.0482 21.2029 56.6088 21.053 60.2996C20.8431 65.2105 21.5227 69.9514 22.9419 74.3723C24.1812 70.1715 26.12 66.1107 28.8184 62.35C28.8784 62.2599 28.9483 62.1799 29.0083 62.0899V62.0999Z" fill="#C4122F"/>
<path d="M37.7333 29.2236C37.7333 29.2236 37.6633 29.2736 37.6333 29.2936C37.6533 29.2936 37.6833 29.2936 37.7033 29.2936C37.7033 29.2736 37.7233 29.2436 37.7333 29.2236Z" fill="#C4122F"/>
<path d="M35.3343 43.1561C35.3343 38.4252 36.1038 33.6643 37.7029 29.2935C37.6829 29.2935 37.6529 29.2935 37.6329 29.2935C30.817 34.2744 25.6001 41.3458 22.9517 49.6174C22.9517 49.6174 29.3079 45.0265 35.3343 43.1461" fill="#C4122F"/>
<path d="M51.395 31.3839C51.6348 31.4539 51.1551 31.3039 51.395 31.3839C54.1433 27.5632 57.4714 24.1325 61.2791 21.522C52.5243 21.552 44.3792 24.3925 37.7331 29.2235C37.7331 29.2435 37.7131 29.2735 37.7031 29.2935C41.9706 29.1535 47.0775 30.0736 51.395 31.3839Z" fill="#C4122F"/>
<path d="M70.8737 30.4737C71.0436 30.7038 71.2135 30.9238 71.3834 31.1538C71.4333 31.1738 71.4933 31.1839 71.5433 31.2039C75.9207 29.7936 80.5679 29.1134 85.3051 29.2935C79.0688 24.7226 71.4533 21.892 63.1483 21.552C62.5386 21.522 61.929 21.522 61.3193 21.522C64.8772 23.8924 68.1153 26.883 70.8637 30.4737H70.8737Z" fill="#C4122F"/>
<path d="M73.5717 93.3758C72.9021 93.1957 72.2325 92.9957 71.5828 92.7856C68.8445 96.6064 65.1766 99.867 61.3789 102.478C70.1637 102.438 78.6286 99.577 85.2847 94.716C81.427 94.8461 77.4993 94.416 73.5817 93.3758H73.5717Z" fill="#C4122F"/>
<path d="M87.7436 81.1534C87.7436 85.7443 87.014 90.3052 85.5049 94.536C92.081 89.6651 97.1979 82.7137 99.8664 74.7422C96.7982 77.1126 93.2903 79.183 89.4725 80.6233C88.9229 80.8334 88.2932 80.9634 87.7436 81.1434V81.1534Z" fill="#C4122F"/>
<path d="M71.5832 92.7858C71.5832 92.7858 71.6232 92.7358 71.6332 92.7158C71.5832 92.7258 71.5432 92.7458 71.4932 92.7558C71.5232 92.7558 71.5532 92.7758 71.5832 92.7858Z" fill="#C4122F"/>
<path d="M94.0195 61.7599C94.0195 61.9699 94.0195 62.1899 94.0195 62.4C96.6879 66.1407 98.6168 70.4215 99.8661 74.7524C100.995 71.3017 101.715 67.491 101.875 63.6902C102.085 58.7293 101.365 53.8583 99.916 49.3975C98.8067 53.2882 97.1077 57.179 94.7391 60.7297C94.5092 61.0797 94.2694 61.4198 94.0295 61.7599H94.0195Z" fill="#C4122F"/>
<path d="M87.7036 42.7859C87.7036 42.7859 87.7635 42.8659 87.7835 42.8959C92.2009 44.3362 96.3185 46.6066 99.9063 49.3972C97.2479 41.3456 92.081 34.2842 85.355 29.3433C86.7242 33.174 87.5337 37.2748 87.6836 41.5556C87.6936 41.9657 87.7036 42.3758 87.7036 42.7859Z" fill="#C4122F"/>
<path d="M35.2944 81.0532C39.0722 86.1242 45.4084 90.5851 51.5148 92.7355C49.476 89.8149 47.3273 86.3142 46.118 82.9636C42.5801 82.8336 38.5425 82.0534 35.2944 81.0532Z" fill="#C4122F"/>
<path d="M29.0085 62.0998C29.1684 68.6111 31.7769 76.0125 35.2848 81.0435C35.3348 77.4828 35.8644 73.392 36.7839 70.1114C34.0056 67.951 31.0573 64.7904 28.9985 62.0898L29.0085 62.0998Z" fill="#C4122F"/>
<path d="M36.7835 54.0684C35.7941 50.5977 35.3843 46.6269 35.3444 43.1562C31.9864 48.0072 29.288 55.6487 29.0181 61.9899C29.0081 62.25 29.0181 61.8499 29.0181 62.1099C31.1568 59.2994 34.1151 56.1488 36.7835 54.0684Z" fill="#C4122F"/>
<path d="M36.7935 70.1215C36.7935 70.1215 36.8635 70.1715 36.8935 70.2015C36.8735 70.1315 36.8535 70.0715 36.8335 70.0015C36.8235 70.0415 36.8135 70.0815 36.8035 70.1215H36.7935Z" fill="#C4122F"/>
<path d="M51.3949 31.3838C45.1886 33.5442 39.1722 37.9251 35.3345 43.1461C38.7924 42.0559 42.7201 41.1957 46.188 41.0657C47.4273 37.585 49.3361 34.2844 51.3849 31.3838H51.3949Z" fill="#C4122F"/>
<path d="M36.7837 54.0681C36.7837 54.0681 36.7837 54.0981 36.7937 54.1181C36.7937 54.0881 36.8137 54.0681 36.8237 54.0381C36.8137 54.0481 36.7937 54.0581 36.7837 54.0681Z" fill="#C4122F"/>
<path d="M71.4531 31.2436C71.4531 31.2436 71.5231 31.2236 71.5531 31.2136C71.5031 31.1936 71.4431 31.1836 71.3931 31.1636C71.4131 31.1936 71.4331 31.2236 71.4531 31.2536V31.2436Z" fill="#C4122F"/>
<path d="M61.4688 36.0846C61.4688 36.0846 61.4988 36.0846 61.5088 36.0846C64.577 34.0242 67.925 32.3939 71.4529 31.2437C71.4329 31.2137 71.4129 31.1836 71.3929 31.1536C68.7745 30.3335 65.9961 29.8434 63.1278 29.7234C59.1202 29.5533 55.0026 30.1935 51.4048 31.3837C54.9227 32.5539 58.4206 34.1042 61.3689 36.0846C61.4088 36.0846 61.4388 36.0846 61.4788 36.0846H61.4688Z" fill="#C4122F"/>
<path d="M51.5151 92.7356C54.1236 93.5457 57.5715 94.1058 60.4198 94.2258C64.2775 94.3859 68.0053 93.8658 71.4933 92.7556C67.9554 91.6053 64.6673 89.995 61.6991 88.0146C58.7009 90.065 54.8132 91.5953 51.5151 92.7356Z" fill="#C4122F"/>
<path d="M46.1181 82.9638C46.1181 82.9638 46.1981 82.9638 46.2381 82.9638C46.1881 82.9238 46.1281 82.8837 46.0781 82.8438C46.0881 82.8837 46.1081 82.9238 46.1181 82.9638Z" fill="#C4122F"/>
<path d="M71.6328 92.7158C78.059 90.6454 83.7656 86.4846 87.7432 81.1636C84.1154 82.3338 80.1777 82.9939 76.5199 83.1139C75.2607 86.5646 73.6816 89.8553 71.6328 92.7258V92.7158Z" fill="#C4122F"/>
<path d="M61.6988 88.0148C61.7488 87.9748 61.7988 87.9448 61.8588 87.9048C61.7588 87.9048 61.6588 87.9048 61.5488 87.9048C61.5988 87.9348 61.6488 87.9748 61.6988 88.0048V88.0148Z" fill="#C4122F"/>
<path d="M94.02 62.3998C94.02 62.1898 94.02 61.9698 94.02 61.7598C93.94 61.8698 93.86 61.9798 93.79 62.0798C93.87 62.1898 93.95 62.2898 94.02 62.3998Z" fill="#C4122F"/>
<path d="M86.2144 69.9714C87.2837 73.6421 87.7335 77.5028 87.7434 81.1635C91.3913 76.1826 93.7199 69.9614 93.9997 63.3301C94.0097 63.02 94.0197 62.72 94.0197 62.4099C93.9398 62.2999 93.8698 62.1999 93.7899 62.0898C91.5912 65.1204 89.0327 67.7509 86.2144 69.9714Z" fill="#C4122F"/>
<path d="M87.7836 42.8961C87.7836 42.8961 87.7236 42.8161 87.7036 42.7861C87.7036 42.8161 87.7036 42.8461 87.7036 42.8761C87.7336 42.8761 87.7636 42.8961 87.7836 42.9061V42.8961Z" fill="#C4122F"/>
<path d="M86.1245 54.0584C86.1245 54.0584 86.1545 54.1384 86.1645 54.1884C89.1227 56.5089 91.6712 59.1694 93.79 62.0799C93.8699 61.9699 93.9499 61.8599 94.0198 61.7599C93.9798 54.7385 91.6812 48.2072 87.7835 42.8962C87.7535 42.8962 87.7235 42.8762 87.7036 42.8662C87.7036 46.747 87.1539 50.4977 86.1245 54.0584Z" fill="#C4122F"/>
<path d="M86.0742 70.081C86.0742 70.081 86.1642 70.011 86.2142 69.971C86.1942 69.921 86.1842 69.861 86.1642 69.811C86.1342 69.901 86.1042 69.991 86.0742 70.081Z" fill="#C4122F"/>
<path d="M76.6698 40.9555C80.5075 41.0755 84.2053 41.7457 87.6932 42.8659C87.6932 42.8359 87.6932 42.8059 87.6932 42.7759C83.7156 37.3948 78.0989 33.284 71.5428 31.2036C71.5128 31.2136 71.4729 31.2236 71.4429 31.2336C73.6715 34.2842 75.4105 37.5548 76.6698 40.9455V40.9555Z" fill="#C4122F"/>
<path d="M76.7098 41.0458C76.7098 41.0458 76.6898 40.9858 76.6698 40.9458C76.6398 40.9458 76.5998 40.9458 76.5698 40.9458C76.6198 40.9758 76.6598 41.0158 76.7098 41.0458Z" fill="#C4122F"/>
<path d="M39.1522 71.8217C38.3727 71.3016 37.6231 70.7615 36.8936 70.1914C38.5925 75.3024 41.8406 79.7033 46.0781 82.8339C45.1387 80.1933 44.4691 77.4428 44.0893 74.6323C42.4003 73.8221 40.7513 72.8819 39.1522 71.8117V71.8217Z" fill="#C4122F"/>
<path d="M37.8329 57.2688C37.4431 56.2286 37.0933 55.1684 36.7935 54.1182C36.004 56.6086 35.5742 59.2492 35.5742 61.9997C35.5742 64.7502 36.014 67.4808 36.8335 70.0013C37.623 67.2407 38.7024 64.5902 40.0316 62.1097C39.2021 60.5694 38.4725 58.9491 37.8329 57.2688Z" fill="#C4122F"/>
<path d="M46.198 41.0659L46.188 41.0759H46.198V41.0659Z" fill="#C4122F"/>
<path d="M44.1691 49.4275C44.399 47.7072 44.7288 45.9869 45.1885 44.2665C45.4783 43.1763 45.8181 42.1061 46.1879 41.0659C41.8305 44.2565 38.5125 48.7774 36.8135 54.0284C39.0921 52.2581 41.5307 50.7578 44.0892 49.5376C44.1191 49.4975 44.1391 49.4675 44.1691 49.4275Z" fill="#C4122F"/>
<path d="M40.0917 61.9897C40.0917 61.9897 40.0517 62.0697 40.0317 62.1097C40.0517 62.1497 40.0717 62.1897 40.1017 62.2297C40.1017 62.1497 40.1017 62.0797 40.1017 61.9997C40.1017 61.9997 40.1017 61.9997 40.1017 61.9897H40.0917Z" fill="#C4122F"/>
<path d="M61.5089 36.085C61.5089 36.085 61.4789 36.085 61.4689 36.085C61.4289 36.085 61.3989 36.085 61.3589 36.085C61.3789 36.105 61.4089 36.115 61.4289 36.135C61.4589 36.115 61.4789 36.105 61.5089 36.085Z" fill="#C4122F"/>
<path d="M54.8029 41.6761C54.8029 41.6761 54.8629 41.656 54.8928 41.646C56.8817 39.5756 59.0804 37.7253 61.439 36.135C61.419 36.115 61.389 36.105 61.369 36.085C55.7024 36.105 50.4655 37.9553 46.208 41.0659C49.1163 40.9559 51.9946 41.1659 54.8129 41.666L54.8029 41.6761Z" fill="#C4122F"/>
<path d="M54.9829 82.3835C54.9829 82.3835 54.8829 82.3535 54.8429 82.3335C52.9241 82.6836 50.9652 82.8936 48.9664 82.9636C48.057 82.9936 47.1475 82.9936 46.248 82.9636C50.5255 86.0742 55.7824 87.9146 61.469 87.9146C61.499 87.9146 61.519 87.9146 61.549 87.9146C59.1504 86.3043 56.9517 84.4439 54.9829 82.3835Z" fill="#C4122F"/>
<path d="M44.0893 74.6424C44.1593 74.6724 44.2293 74.7124 44.2993 74.7424C44.2193 74.6324 44.1393 74.5324 44.0693 74.4224C44.0693 74.4924 44.0893 74.5724 44.0993 74.6424H44.0893Z" fill="#C4122F"/>
<path d="M68.0549 82.4336C66.6458 83.9039 65.1667 85.4342 63.4977 86.7144C62.958 87.1345 62.4083 87.5346 61.8486 87.9147C67.2354 87.8346 72.4024 86.0043 76.5099 83.1137C73.7316 83.1837 70.7433 82.9337 68.045 82.4436L68.0549 82.4336Z" fill="#C4122F"/>
<path d="M77.3695 81.0234C77.1696 81.6635 76.7399 82.4837 76.52 83.1038C80.8474 79.9332 84.3753 75.2823 86.0743 70.0713C83.7857 71.8616 81.3272 73.3819 78.7487 74.6122C78.4689 76.7426 78.0091 78.883 77.3695 81.0134V81.0234Z" fill="#C4122F"/>
<path d="M86.1645 54.1881C86.1645 54.1881 86.1345 54.1081 86.1245 54.0581C86.1245 54.0881 86.1145 54.1081 86.1045 54.1381C86.1245 54.1581 86.1445 54.1681 86.1645 54.1881Z" fill="#C4122F"/>
<path d="M82.9062 61.9297C83.9956 63.9201 84.925 66.0405 85.6746 68.2609C85.8545 68.781 86.0144 69.2911 86.1643 69.8112C86.9438 67.3507 87.3636 64.7202 87.3636 61.9997C87.3636 59.2792 86.9438 56.6587 86.1643 54.1882C86.1443 54.1682 86.1243 54.1582 86.1043 54.1382C85.3048 56.8587 84.2355 59.4692 82.9062 61.9197V61.9297Z" fill="#C4122F"/>
<path d="M78.749 74.622C78.749 74.622 78.749 74.582 78.749 74.562C78.729 74.592 78.709 74.612 78.689 74.642C78.709 74.642 78.719 74.622 78.739 74.622H78.749Z" fill="#C4122F"/>
<path d="M76.7102 41.0456C77.7196 43.7962 78.4192 46.6367 78.8089 49.4873C78.8389 49.5373 78.8789 49.5873 78.9089 49.6273C80.9177 50.6075 82.8665 51.7577 84.7354 53.108C85.1952 53.4381 85.6549 53.7781 86.0946 54.1282C86.0946 54.0982 86.1046 54.0782 86.1146 54.0482C84.4156 48.7671 81.0776 44.2363 76.7002 41.0356L76.7102 41.0456Z" fill="#C4122F"/>
<path d="M82.8364 61.9998C82.8364 61.9998 82.8364 62.0298 82.8364 62.0498C82.8564 62.0098 82.8764 61.9698 82.9064 61.9298C82.8864 61.8898 82.8664 61.8498 82.8364 61.7998C82.8364 61.8698 82.8364 61.9298 82.8364 61.9998Z" fill="#C4122F"/>
<path d="M67.9251 41.6058C67.9251 41.6058 67.9451 41.6058 67.9651 41.6158C70.3637 41.1657 72.8422 40.9257 75.3707 40.9257C75.7704 40.9257 76.1802 40.9257 76.58 40.9457C72.3425 37.8951 67.1356 36.0847 61.5189 36.0747C61.4889 36.0947 61.4689 36.1047 61.439 36.1247C63.8176 37.725 65.9863 39.5654 67.9251 41.5958V41.6058Z" fill="#C4122F"/>
<path d="M43.7794 67.8611C42.4102 66.1107 41.1809 64.2304 40.1016 62.23C40.1515 66.7709 41.6107 70.9817 44.0692 74.4224C43.7994 72.2619 43.6994 70.0715 43.7794 67.8611Z" fill="#C4122F"/>
<path d="M44.1694 49.4272C44.1694 49.4272 44.1194 49.4972 44.0894 49.5372C44.1094 49.5272 44.1394 49.5172 44.1594 49.5072C44.1594 49.4872 44.1594 49.4572 44.1594 49.4372L44.1694 49.4272Z" fill="#C4122F"/>
<path d="M44.1594 49.5076C44.1594 49.5076 44.1094 49.5276 44.0894 49.5376C41.5709 53.0382 40.0918 57.3391 40.0918 61.98C41.1811 59.9596 42.4504 58.0392 43.8596 56.2389C43.7696 54.0084 43.8596 51.758 44.1594 49.4976V49.5076Z" fill="#C4122F"/>
<path d="M54.883 41.6457C54.883 41.6457 54.823 41.6657 54.793 41.6757C54.813 41.6757 54.823 41.6757 54.843 41.6757C54.853 41.6657 54.863 41.6557 54.883 41.6357V41.6457Z" fill="#C4122F"/>
<path d="M50.4855 47.1268C51.7847 45.1765 53.2538 43.3561 54.8529 41.6758C54.8329 41.6758 54.8229 41.6758 54.8029 41.6758C50.4954 43.0861 46.7876 45.8366 44.1792 49.4373C44.1792 49.4573 44.1792 49.4873 44.1792 49.5073C46.218 48.5371 48.3367 47.747 50.4954 47.1268H50.4855Z" fill="#C4122F"/>
<path d="M54.843 82.3337C54.843 82.3337 54.943 82.3637 54.983 82.3837C54.963 82.3637 54.943 82.3437 54.923 82.3237C54.893 82.3237 54.863 82.3237 54.833 82.3337H54.843Z" fill="#C4122F"/>
<path d="M50.7455 77.1427C48.5568 76.5425 46.3981 75.7424 44.2993 74.7422C46.9078 78.2629 50.6655 80.9334 54.923 82.3237C54.953 82.3237 54.893 82.3237 54.923 82.3237C53.3839 80.7133 51.9947 78.973 50.7455 77.1427Z" fill="#C4122F"/>
<path d="M54.9229 82.3239C56.9717 82.974 59.2004 83.3841 61.4691 83.3841C63.7377 83.3841 66.1063 83.014 68.0651 82.4239C65.8564 81.9938 63.278 81.4237 61.1892 80.6235C59.1704 81.3437 57.0817 81.9138 54.9329 82.3139L54.9229 82.3239Z" fill="#C4122F"/>
<path d="M68.0552 82.4339C72.2027 81.0036 76.1504 78.123 78.6988 74.6523C76.71 75.6025 74.6513 76.3827 72.5525 76.9928C71.3432 78.8332 69.5943 80.7935 68.0552 82.4339Z" fill="#C4122F"/>
<path d="M78.7588 74.562C81.3173 71.0413 82.8264 66.7205 82.8364 62.0396C81.737 64.0499 80.4778 65.9603 79.0686 67.7407C79.1585 69.9911 79.0686 72.2715 78.7588 74.552V74.562Z" fill="#C4122F"/>
<path d="M78.9086 49.6376C78.9086 49.6376 78.8386 49.5376 78.8086 49.4976C78.8086 49.5276 78.8086 49.5676 78.8186 49.5976C78.8486 49.6076 78.8786 49.6276 78.9086 49.6376Z" fill="#C4122F"/>
<path d="M79.1384 56.2385C80.5076 57.9688 81.7469 59.8191 82.8262 61.7995C82.7862 57.2687 81.3371 53.0778 78.8985 49.6372C78.8686 49.6272 78.8386 49.6072 78.8086 49.5972C79.0984 51.8076 79.2084 54.028 79.1284 56.2385H79.1384Z" fill="#C4122F"/>
<path d="M67.955 41.616C67.955 41.616 67.935 41.616 67.915 41.606C67.915 41.606 67.925 41.616 67.935 41.626C67.935 41.626 67.945 41.626 67.955 41.626V41.616Z" fill="#C4122F"/>
<path d="M67.955 41.616C67.955 41.616 67.9451 41.616 67.9351 41.616C69.5741 43.3263 71.0432 45.1667 72.3524 47.127C74.5511 47.7472 76.7098 48.5673 78.8186 49.5875C78.8186 49.5575 78.8186 49.5175 78.8086 49.4875C76.1602 45.8168 72.3724 43.0162 67.965 41.606L67.955 41.616Z" fill="#C4122F"/>
<path d="M61.3689 43.4463C63.4776 42.6561 65.6763 42.046 67.935 41.6259C67.935 41.6259 67.925 41.6159 67.915 41.6059C65.8762 40.9558 63.7075 40.6157 61.4588 40.6157C59.2102 40.6157 56.9515 40.9758 54.8827 41.6459C54.8727 41.6559 54.8628 41.6659 54.8428 41.6859C57.0714 42.086 59.2502 42.6861 61.3689 43.4463Z" fill="#C4122F"/>
<path d="M61.4689 62.0697C61.5076 62.0697 61.5389 62.0383 61.5389 61.9997C61.5389 61.961 61.5076 61.9297 61.4689 61.9297C61.4303 61.9297 61.3989 61.961 61.3989 61.9997C61.3989 62.0383 61.4303 62.0697 61.4689 62.0697Z" fill="#C4122F"/>
<path d="M322.484 58.3392C322.614 57.8892 322.534 58.2492 322.484 58.3392Z" fill="#0D3862"/>
<path d="M322.484 58.3394C322.614 57.8893 322.534 58.2494 322.484 58.3394C322.704 59.3996 322.904 60.3998 323.123 61.41C324.633 61.38 326.152 61.39 327.661 61.4H329.15C328.44 60.7699 328.021 59.7697 327.881 58.8595C327.731 57.9193 327.641 56.9592 327.631 55.999C327.601 51.6781 327.621 47.3673 327.621 43.0465C327.621 42.6664 327.621 42.2863 327.591 41.9062C327.451 39.7958 326.531 38.0955 324.872 36.7852C324.033 36.1251 323.093 35.645 322.094 35.2649C320.265 34.5748 318.346 34.2648 316.407 34.1247C314.109 33.9547 311.82 34.0547 309.552 34.4248C306.973 34.8449 304.654 35.9451 302.376 37.1453C302.336 37.1653 302.326 37.2253 302.276 37.3353C303.025 38.8256 303.865 40.4159 304.644 41.9662C304.814 41.8462 304.834 41.7362 304.894 41.6662C306.104 40.2459 307.703 39.4658 309.462 38.9957C312.21 38.2655 314.998 38.2455 317.797 38.6356C318.776 38.7756 319.725 39.0257 320.595 39.5058C322.064 40.3259 322.644 41.6062 322.524 43.2365C322.444 44.3267 322.024 44.8468 320.965 45.0969C320.255 45.2669 319.526 45.3669 318.796 45.3769C316.497 45.4169 314.209 45.3769 311.91 45.4269C310.301 45.4669 308.682 45.5269 307.083 45.717C304.035 46.077 301.546 48.3975 300.887 51.3681C300.667 52.3683 300.697 53.3685 300.797 54.3787C301.087 57.1392 302.436 59.1596 304.984 60.3198C305.414 60.5199 305.874 60.6799 306.323 60.8299C307.913 61.36 309.572 61.5401 311.231 61.6401C313.499 61.7801 315.768 61.7601 318.007 61.25C319.755 60.8499 321.514 59.9097 322.494 58.2994L322.484 58.3394ZM309.462 56.9192C308.772 56.7291 308.072 56.4291 307.483 56.029C305.974 54.9888 305.674 52.3583 306.953 51.028C307.893 50.0478 309.482 49.9878 310.751 49.8878C312.34 49.7578 313.939 49.7678 315.538 49.7578C317.887 49.7478 320.495 49.8478 322.604 48.6976C322.544 50.1478 322.754 51.4881 322.434 52.7983C322.054 54.3086 321.105 55.3789 319.785 56.139C318.586 56.8291 317.277 57.1892 315.918 57.3192C313.749 57.5293 311.58 57.5193 309.472 56.9392L309.462 56.9192Z" fill="#0D3862"/>
<path d="M168.136 61.0001C167.496 60.2999 167.156 59.4698 167.026 58.5496C166.916 57.7795 166.846 56.9893 166.836 56.2191C166.816 53.1185 166.836 50.0079 166.836 46.9073C166.836 45.287 166.866 43.6767 166.806 42.0564C166.726 39.826 165.747 38.0456 163.968 36.6954C163.009 35.9752 161.949 35.4651 160.81 35.095C157.212 33.9448 153.524 33.8748 149.806 34.2749C146.838 34.595 144.18 35.7852 141.581 37.1454L141.441 37.2255C142.191 38.7157 143.12 40.4761 143.86 41.9564L144.1 41.6663C145.359 40.216 146.998 39.4259 148.817 38.9558C151.515 38.2657 154.254 38.2357 157.002 38.6457C157.842 38.7758 158.681 39.0058 159.461 39.3459C161.13 40.066 161.869 41.4163 161.729 43.2366C161.649 44.2668 161.24 44.8369 160.25 45.087C159.551 45.257 158.811 45.367 158.081 45.387C156.343 45.4371 154.604 45.4271 152.865 45.4271C150.696 45.4271 148.527 45.4271 146.368 45.7071C143.29 46.1072 140.762 48.3976 140.102 51.3782C139.842 52.5584 139.892 53.7387 140.082 54.9189C140.512 57.5094 141.921 59.3598 144.34 60.4C144.869 60.63 145.419 60.83 145.979 60.9801C148.757 61.7302 151.605 61.8502 154.464 61.6502C155.563 61.5702 156.662 61.3802 157.742 61.1301C159.311 60.76 160.62 59.9399 161.489 58.5196C161.539 58.4396 161.619 58.3796 161.739 58.2595C161.909 59.1597 162.019 59.9499 162.209 60.73C162.369 61.3701 162.439 61.3902 163.108 61.3902C164.618 61.3902 166.137 61.3902 167.646 61.3902C167.866 61.3902 168.076 61.3601 168.355 61.3301C168.265 61.1601 168.225 61.0601 168.165 60.9901L168.136 61.0001ZM161.779 51.9983C161.649 53.5986 160.84 54.8489 159.541 55.7791C158.531 56.4892 157.412 56.9193 156.213 57.1293C153.674 57.5894 151.146 57.5394 148.647 56.9193C147.997 56.7593 147.348 56.4692 146.798 56.0991C145.339 55.1389 144.939 52.7385 145.949 51.3082C146.328 50.7681 146.858 50.408 147.478 50.268C148.377 50.058 149.307 49.8579 150.226 49.8179C152.085 49.7279 153.954 49.7779 155.813 49.7279C157.072 49.6979 158.331 49.6479 159.581 49.4878C160.31 49.3978 161.01 49.0778 161.809 48.8377C161.809 49.8979 161.879 50.9681 161.789 52.0183L161.779 51.9983Z" fill="#0D3862"/>
<path d="M174.782 53.2384C174.922 53.3484 174.732 53.1484 174.782 53.2384Z" fill="#0D3862"/>
<path d="M196.598 47.0372C195.519 46.3071 194.35 45.7569 193.061 45.5769C191.561 45.3769 190.062 45.2068 188.553 45.1268C186.335 45.0168 184.116 45.0268 181.897 44.9568C180.888 44.9268 179.888 44.7668 178.959 44.3167C177.99 43.8366 177.61 43.0564 177.78 42.0162C177.92 41.1361 178.419 40.4959 179.119 39.9858C179.908 39.4157 180.808 39.0757 181.747 38.8756C184.656 38.2455 187.564 38.2955 190.452 38.9456C192.531 39.4157 194.42 40.2759 195.849 41.9362C195.909 42.0062 196.019 42.0262 196.179 42.1062C196.948 40.5559 197.708 39.0256 198.507 37.4453C197.708 37.0653 196.958 36.7052 196.219 36.3451C191.512 34.0847 186.574 33.5746 181.467 34.5148C179.499 34.8748 177.62 35.535 175.951 36.6852C173.442 38.4155 172.323 40.806 172.603 43.8366C172.803 46.047 173.852 47.7073 175.891 48.6475C176.66 49.0076 177.49 49.2876 178.319 49.4577C180.598 49.9078 182.917 50.0278 185.235 50.0778C186.574 50.1078 187.904 50.1478 189.243 50.2378C190.352 50.3178 191.442 50.5079 192.461 50.998C193.49 51.4981 194.04 52.3182 194.03 53.4684C194.03 54.3886 193.58 55.1088 192.881 55.6689C192.081 56.319 191.142 56.6891 190.152 56.9191C187.594 57.5392 185.015 57.5892 182.417 57.2892C180.958 57.1192 179.539 56.7791 178.199 56.159C176.92 55.5589 175.481 54.5187 174.781 53.2284C174.721 53.3284 174.672 53.3884 174.642 53.4585C173.862 55.0688 173.082 56.6791 172.273 58.3694C173.402 59.2196 174.612 59.7797 175.871 60.2198C180.538 61.8601 185.325 62.1601 190.192 61.38C192.191 61.0599 194.11 60.4298 195.839 59.3196C198.477 57.6393 199.777 55.2788 199.487 52.1082C199.297 49.9778 198.397 48.2374 196.608 47.0172L196.598 47.0372Z" fill="#0D3862"/>
<path d="M233.566 61.2598C232.217 59.8596 232.127 58.0992 232.077 56.3189C232.077 56.1388 232.077 55.9688 232.077 55.7888C232.077 50.5578 232.077 45.3367 232.077 40.1057C232.077 39.3956 232.107 38.6955 232.167 37.9853C232.267 36.8351 232.577 35.7549 233.377 34.8647C233.437 34.7947 233.467 34.7047 233.516 34.6147C229.779 34.6147 229.779 34.6447 225.411 34.6447C225.411 34.6947 225.411 34.7647 225.441 34.7847C226.531 35.8649 226.781 37.2352 226.81 38.6755C226.84 40.6158 226.84 42.5662 226.84 44.5066C226.84 44.6466 226.79 44.7966 226.761 44.9567H210.27C210.23 44.8467 210.19 44.7766 210.19 44.7066C210.2 42.4562 210.18 40.2158 210.25 37.9653C210.29 36.8151 210.64 35.7349 211.44 34.8347C211.51 34.7547 211.53 34.6347 211.58 34.5146C208.002 34.5146 207.542 34.6047 203.464 34.6047C203.514 34.6947 203.544 34.7947 203.614 34.8547C204.334 35.5348 204.634 36.415 204.774 37.3452C204.874 38.0653 204.923 38.8055 204.923 39.5356C204.933 45.0867 204.933 50.6478 204.923 56.1989C204.923 56.849 204.884 57.5091 204.814 58.1592C204.684 59.1994 204.404 60.1896 203.604 60.9498C203.534 61.0198 203.514 61.1498 203.474 61.2598L211.61 61.2398C211.53 61.1098 211.47 60.9698 211.38 60.8698C210.84 60.2396 210.51 59.4995 210.39 58.6893C210.28 57.9392 210.2 57.1891 210.19 56.4289C210.16 54.3885 210.18 52.3381 210.19 50.2977C210.19 50.0577 210.22 49.8076 210.24 49.5376H226.82C226.84 49.8576 226.86 50.1277 226.86 50.3977C226.86 51.738 226.86 53.0783 226.86 54.4085C226.86 55.4987 226.86 56.5789 226.79 57.6591C226.731 58.8894 226.471 60.0596 225.531 60.9798C225.461 61.0498 225.441 61.1898 225.401 61.3099L233.576 61.2298L233.566 61.2598Z" fill="#0D3862"/>
<path d="M260.381 35.545C255.584 33.5246 250.687 33.5246 245.87 35.465C242.172 36.9553 239.613 39.6458 238.334 43.4665C237.794 45.0868 237.584 46.7572 237.664 48.4675C237.884 53.7785 240.323 57.6893 245.1 60.0597C247.588 61.29 250.257 61.7601 253.595 61.7701C254.714 61.7901 256.383 61.58 258.022 61.1499C264.199 59.5396 267.866 55.0088 268.416 49.4577C268.986 43.7066 266.337 38.0555 260.381 35.545ZM262.28 52.3782C260.851 55.1688 258.462 56.6591 255.454 57.2292C254.664 57.3792 253.855 57.4092 253.055 57.4892C251.286 57.4492 249.587 57.1392 247.988 56.359C244.96 54.8687 243.291 52.4283 242.891 49.0776C242.741 47.8074 242.821 46.5571 243.141 45.3269C243.901 42.4763 245.65 40.4459 248.358 39.3357C251.456 38.0655 254.624 38.0355 257.712 39.3357C261.24 40.816 263.029 43.5965 263.249 47.3973C263.349 49.1376 263.069 50.828 262.27 52.3883L262.28 52.3782Z" fill="#0D3862"/>
<path d="M300.457 61.4701C300.617 61.4401 300.767 61.3801 301.046 61.2901C296.059 57.0092 291.772 52.2083 287.325 47.5074C287.804 46.8873 288.224 46.3572 288.644 45.8171C289.073 45.2569 289.513 44.7068 289.953 44.1467C290.373 43.6066 290.792 43.0765 291.212 42.5364C291.632 41.9963 292.042 41.4562 292.471 40.9261C292.911 40.376 293.361 39.8259 293.811 39.2858C294.25 38.7657 294.69 38.2456 295.13 37.7255C295.59 37.1854 296.049 36.6553 296.499 36.1052C296.919 35.5951 297.409 35.135 297.828 34.4648H289.683C290.233 35.5751 289.863 36.4752 289.323 37.3354C288.934 37.9555 288.514 38.5556 288.064 39.1258C285.775 42.0063 283.467 44.8869 281.178 47.7574C281.008 47.9675 280.858 48.1975 280.688 48.4176C280.828 48.5876 280.938 48.7276 281.058 48.8576C283.267 51.3081 285.476 53.7686 287.704 56.2091C288.454 57.0292 289.233 57.8194 290.053 58.5695C293.031 61.3101 296.519 62.2402 300.477 61.4601L300.457 61.4701Z" fill="#0D3862"/>
<path d="M280.199 61.2899C280.119 61.1599 280.069 61.0198 279.979 60.9098C279.39 60.2097 279.08 59.3895 278.95 58.5094C278.86 57.8392 278.8 57.1491 278.79 56.479C278.78 50.7979 278.79 45.1168 278.79 39.4357C278.79 39.2056 278.79 38.9856 278.79 38.7555C278.87 37.3452 279.09 35.995 280.079 34.8848C280.139 34.8248 280.139 34.7147 280.189 34.5747H272.024C272.144 34.7747 272.204 34.9148 272.294 35.0148C272.913 35.6249 273.213 36.4051 273.343 37.2352C273.453 37.9554 273.523 38.6955 273.523 39.4157C273.533 45.1268 273.533 50.8279 273.523 56.539C273.523 57.2191 273.463 57.8992 273.363 58.5694C273.233 59.4595 272.943 60.2797 272.274 60.9398C272.184 61.0298 272.134 61.1699 272.064 61.3099H280.189L280.199 61.2899Z" fill="#0D3862"/>
<path d="M148.557 89.9755C147.618 89.9755 146.768 89.8355 145.989 89.5554C145.219 89.2754 144.549 88.8553 144 88.2952C143.44 87.7351 143.01 87.0549 142.71 86.2248C142.411 85.4046 142.261 84.4544 142.261 83.3842V74.5725H143.97V83.2742C143.97 84.9245 144.379 86.1847 145.189 87.0649C146.009 87.9451 147.138 88.3852 148.597 88.3852C150.056 88.3852 151.105 87.9651 151.925 87.1249C152.745 86.2848 153.154 85.0345 153.154 83.3742V74.5625H154.863V83.2442C154.863 84.3544 154.713 85.3346 154.414 86.1648C154.114 87.0049 153.684 87.7051 153.124 88.2652C152.565 88.8253 151.905 89.2553 151.135 89.5354C150.366 89.8155 149.506 89.9555 148.547 89.9555L148.557 89.9755Z" fill="#0D3862"/>
<path d="M165.277 74.5825H166.876L176.42 86.7349V74.5825H178.089V89.7355H176.73L166.946 77.303V89.7355H165.277V74.5825Z" fill="#0D3862"/>
<path d="M188.883 74.5825H190.592V89.7355H188.883V74.5825Z" fill="#0D3862"/>
<path d="M199.667 74.5825H201.576L206.962 87.6351L212.369 74.5825H214.208L207.692 89.8455H206.173L199.657 74.5825H199.667Z" fill="#0D3862"/>
<path d="M222.683 74.5825H233.627V76.1228H224.392V81.3438H232.657V82.8841H224.392V88.2152H233.737V89.7555H222.683V74.6025V74.5825Z" fill="#0D3862"/>
<path d="M243.97 74.5825H250.486C251.426 74.5825 252.255 74.7125 252.985 74.9826C253.714 75.2527 254.314 75.6227 254.794 76.0928C255.174 76.4729 255.453 76.913 255.663 77.4131C255.863 77.9232 255.963 78.4733 255.963 79.0834V79.1234C255.963 79.7635 255.863 80.3236 255.663 80.8237C255.463 81.3238 255.174 81.7539 254.804 82.124C254.434 82.4941 254.004 82.7941 253.495 83.0342C252.985 83.2742 252.445 83.4442 251.846 83.5443L256.493 89.7355H254.394L250.007 83.8443H245.679V89.7355H243.97V74.5825ZM250.346 82.314C250.906 82.314 251.426 82.244 251.905 82.094C252.385 81.954 252.795 81.7439 253.145 81.4739C253.495 81.2038 253.764 80.8837 253.954 80.5037C254.154 80.1236 254.244 79.6835 254.244 79.1934V79.1534C254.244 78.2132 253.904 77.4831 253.225 76.953C252.545 76.4229 251.596 76.1628 250.366 76.1628H245.679V82.314H250.346Z" fill="#0D3862"/>
<path d="M271.194 89.9556C269.985 89.9556 268.876 89.7555 267.876 89.3555C266.877 88.9554 265.917 88.3453 265.008 87.5251L266.067 86.2648C266.857 86.985 267.656 87.5251 268.466 87.8752C269.275 88.2252 270.205 88.4053 271.254 88.4053C272.303 88.4053 273.093 88.1652 273.713 87.6751C274.322 87.195 274.632 86.5749 274.632 85.8248V85.7848C274.632 85.4347 274.572 85.1246 274.462 84.8446C274.342 84.5645 274.142 84.3045 273.853 84.0744C273.563 83.8444 273.163 83.6343 272.653 83.4443C272.144 83.2543 271.484 83.0742 270.694 82.9042C269.825 82.7142 269.075 82.5041 268.426 82.2541C267.786 82.004 267.246 81.714 266.827 81.3639C266.407 81.0138 266.097 80.6138 265.897 80.1537C265.697 79.6936 265.597 79.1535 265.597 78.5334V78.4933C265.597 77.9032 265.717 77.3531 265.967 76.843C266.217 76.3329 266.557 75.9028 267.007 75.5328C267.456 75.1627 267.976 74.8726 268.586 74.6626C269.195 74.4526 269.855 74.3525 270.574 74.3525C271.684 74.3525 272.653 74.5126 273.483 74.8226C274.312 75.1327 275.112 75.6028 275.891 76.2229L274.892 77.5432C274.182 76.963 273.473 76.543 272.763 76.2829C272.054 76.0229 271.304 75.8928 270.525 75.8928C269.525 75.8928 268.746 76.1229 268.166 76.593C267.586 77.0631 267.296 77.6432 267.296 78.3333V78.3733C267.296 78.7334 267.356 79.0534 267.466 79.3335C267.586 79.6136 267.786 79.8736 268.096 80.1137C268.396 80.3537 268.816 80.5637 269.355 80.7638C269.885 80.9538 270.574 81.1439 271.414 81.3139C273.103 81.694 274.342 82.2141 275.142 82.8742C275.941 83.5343 276.341 84.4445 276.341 85.6047V85.6447C276.341 86.2949 276.211 86.885 275.961 87.4051C275.701 87.9352 275.352 88.3853 274.902 88.7553C274.452 89.1354 273.913 89.4155 273.273 89.6255C272.633 89.8255 271.944 89.9256 271.194 89.9256V89.9556Z" fill="#0D3862"/>
<path d="M286.335 74.5825H288.044V89.7355H286.335V74.5825Z" fill="#0D3862"/>
<path d="M301.546 76.1628H296.459V74.5825H308.342V76.1628H303.255V89.7355H301.546V76.1628Z" fill="#0D3862"/>
<path d="M320.505 83.7443L314.208 74.5825H316.287L321.384 82.164L326.521 74.5825H328.51L322.214 83.7243V89.7455H320.505V83.7443Z" fill="#0D3862"/>
</g>
<defs>
<clipPath id="clip0_1210_85">
<rect width="329" height="124" fill="white"/>
</clipPath>
</defs>
</svg>
